Coordinates
version=1
nRows=11
nColumns=36
inDegrees=yes

Units are S.I. units (second, meters, Newtons, ...)
If the header above contains a line with 'inDegrees', this indicates whether rotational values are in degrees (yes) or radians (no).

endheader
time	pelvis_tilt	pelvis_list	pelvis_rotation	pelvis_tx	pelvis_ty	pelvis_tz	hip_flexion_r	hip_adduction_r	hip_rotation_r	knee_angle_r	knee_angle_r_beta	ankle_angle_r	subtalar_angle_r	mtp_angle_r	hip_flexion_l	hip_adduction_l	hip_rotation_l	knee_angle_l	knee_angle_l_beta	ankle_angle_l	subtalar_angle_l	mtp_angle_l	lumbar_extension	lumbar_bending	lumbar_rotation	arm_flex_r	arm_add_r	arm_rot_r	elbow_flex_r	pro_sup_r	arm_flex_l	arm_add_l	arm_rot_l	elbow_flex_l	pro_sup_l
      0.98000000	      1.68153243	      1.16910864	      1.67684503	      1.10447477	      0.94826396	     -0.24865777	     22.79804043	     -1.00364920	      0.37210885	      9.50772537	      0.16594111	     -0.25720092	    -13.63985445	     -7.33125461	    -14.73864352	      5.58678295	      5.50587882	      1.89414350	      0.03305904	     13.71031851	     -3.90550104	     -7.33125461	     -7.50475230	     -2.05176334	     -7.66867489	    -12.68653104	     -2.13162905	    -19.18591281	     25.60970473	    112.14157769	     21.34568901	     -9.77632076	      7.65074475	     46.71014713	    108.99330138
      0.99000000	      1.78587802	      1.31521493	      1.99155145	      1.11701623	      0.94599236	     -0.24851421	     22.40710389	     -1.12803643	     -0.04591559	      6.94927932	      0.12128780	      0.40062154	    -11.75513722	     -7.34143719	    -15.77618991	      5.55499820	      5.23223391	      1.80992750	      0.03158919	     14.43910086	     -2.76562165	     -7.34143719	     -7.70562262	     -2.24987870	     -8.02130791	    -13.10867015	     -1.97987560	    -19.78956552	     25.73972917	    112.25172789	     22.07417037	     -9.90836477	      7.91935214	     47.79542823	    109.05558651
      1.00000000	      1.49897636	      1.63111494	      2.23589347	      1.12943942	      0.94303710	     -0.24823228	     22.73182999	     -1.37977583	     -0.46897708	      5.22520538	      0.09119704	      0.63017050	    -11.38687008	     -7.34224566	    -16.31295907	      5.75994580	      5.08135915	      1.82487752	      0.03185012	     14.66618488	     -2.73359944	     -7.34224566	     -7.41588676	     -2.70895269	     -8.21710939	    -13.54370212	     -1.84139941	    -19.82012389	     25.61239739	    112.14345982	     22.83130858	     -9.83795956	      7.94431076	     48.38677025	    109.03440443
      1.01000000	      1.89877009	      1.56229455	      2.55185361	      1.14226687	      0.94123112	     -0.24803378	     21.77225248	     -1.21350156	     -0.44873142	      2.96759025	      0.05179422	      0.83055815	     -9.70980956	     -7.34519724	    -17.65303174	      5.45832842	      5.17787700	      1.84032652	      0.03211976	     15.20600270	     -2.08991171	     -7.34519724	     -7.95960339	     -2.60170748	     -8.64183158	    -13.77290962	     -1.87372428	    -20.00896372	     25.59490677	    112.10324215	     23.38106879	     -9.99179051	      8.13752557	     49.47437977	    109.13683111
      1.02000000	      1.72929556	      1.72497386	      2.74651061	      1.15498991	      0.93850000	     -0.24764343	     21.99637876	     -1.24727275	     -0.89609700	      2.09659174	      0.03659243	      1.09936010	     -9.49628000	     -7.34591502	    -18.23665650	      5.48482493	      5.03102733	      2.03521723	      0.03552124	     15.32705536	     -1.97691780	     -7.34591502	     -7.79335331	     -2.85057249	     -8.76649503	    -14.12055578	     -1.81336050	    -20.04896197	     25.48557319	    112.02385639	     23.97329386	     -9.86067399	      8.10531402	     50.02082141	    109.13165603
      1.03000000	      2.12869739	      1.57103596	      2.97672343	      1.16815635	      0.93672539	     -0.24735380	     21.46941098	     -0.97269350	     -2.06599973	      1.47176763	      0.02568719	      2.26748146	     -7.14231712	     -7.35241329	    -19.38197121	      5.08504061	      4.41677653	      2.39205136	      0.04174917	     16.09243834	     -0.32901628	     -7.35241329	     -8.34889708	     -2.59822086	     -9.18337934	    -14.24936937	     -1.85336096	    -20.36858107	     25.59085035	    112.13132724	     24.07838384	     -9.87757923	      7.58122602	     51.49342758	    109.37174042
      1.04000000	      2.12340880	      1.55334836	      3.11121010	      1.18129110	      0.93439207	     -0.24682525	     21.43718370	     -0.76105774	     -2.35428102	      1.28654178	      0.02245439	      2.37049654	     -7.11205582	     -7.35320380	    -20.01747770	      4.90956081	      4.28983897	      2.85997157	      0.04991592	     16.16417549	     -0.35506466	     -7.35320380	     -8.34358080	     -2.59545164	     -9.17724891	    -14.51940314	     -1.86405964	    -20.39646511	     25.42177114	    112.14073893	     24.49598153	     -9.65101887	      7.52153916	     51.98674212	    109.43392666
      1.05000000	      2.32152307	      1.32367539	      3.18549639	      1.19481654	      0.93251371	     -0.24615674	     21.14235400	     -0.29073353	     -2.90895515	      1.38640989	      0.02419742	      2.32568740	     -6.73891794	     -7.35973544	    -20.78809569	      4.47928881	      3.53308665	      3.48898598	      0.06089429	     16.62602816	      0.58725653	     -7.35973544	     -8.56580120	     -2.29786707	     -9.45502904	    -14.55816653	     -1.97551465	    -20.45301425	     25.35100948	    112.25469105	     24.36885370	     -9.59002874	      6.76312812	     53.16640916	    109.67386597
      1.06000000	      2.40220205	      1.09156907	      3.15528713	      1.20847576	      0.93059875	     -0.24533928	     20.97512279	      0.22026847	     -3.11808712	      1.76281514	      0.03076693	      1.81293810	     -7.01819659	     -7.36154514	    -21.38323850	      4.10775410	      3.14502835	      4.23617821	      0.07393526	     16.54999259	      0.49666448	     -7.36154514	     -8.59351867	     -2.00049231	     -9.35215729	    -14.69809710	     -2.09549621	    -20.44546542	     25.19466396	    112.27381197	     24.42754446	     -9.39758292	      6.62732534	     53.69378421	    109.75776274
      1.07000000	      2.43441990	      0.77235229	      3.04403703	      1.22237778	      0.92882355	     -0.24431108	     20.87181064	      0.86469836	     -3.21422446	      2.38433197	      0.04161444	      0.63892229	     -7.72967131	     -7.36405726	    -21.81977336	      3.65571895	      2.54414699	      5.17137669	      0.09025755	     16.38900136	      0.53903192	     -7.36405726	     -8.54531348	     -1.62677329	     -9.28247387	    -14.74011477	     -2.21582006	    -20.40547954	     25.05580649	    112.30204440	     24.16452942	     -9.19002999	      6.23305904	     54.41746779	    109.84187374
      1.08000000	      2.33512392	      0.42458522	      2.83982661	      1.23639840	      0.92708003	     -0.24296996	     20.83373535	      1.60687544	     -2.44373302	      3.04880120	      0.05321162	     -1.51978787	     -9.85313237	     -7.37081256	    -22.00432698	      3.16899193	      1.86803706	      6.33072357	      0.11049197	     16.39883429	      1.14096140	     -7.37081256	     -8.32758172	     -1.21464133	     -9.36827508	    -14.62055387	     -2.46791503	    -20.11630106	     24.73334676	    112.37452853	     23.51754232	     -9.08703489	      5.08997667	     55.47225645	    109.95813149
